<svg width="1401" height="1675" viewBox="0 0 1401 1675" fill="none" xmlns="http://www.w3.org/2000/svg">
<path d="M478.834 1490.24H479.011L479.187 1490.23C500.442 1489.23 516.544 1471.01 515.55 1449.95L515.549 1449.93L515.548 1449.91L471.954 605.002C471.953 604.996 471.953 604.991 471.953 604.985C470.943 583.785 452.525 567.463 431.633 568.642C410.398 569.665 394.316 587.872 395.309 608.922L395.31 608.939L395.311 608.955L438.906 1453.88C438.906 1453.88 438.906 1453.89 438.906 1453.89C439.912 1474.39 456.822 1490.24 477.228 1490.24H478.834Z" fill="white" stroke="white" stroke-width="15"/>
<path d="M700.03 1490.24C721.193 1490.24 738.36 1473.07 738.36 1451.91V606.962C738.36 585.799 721.193 568.632 700.03 568.632C678.867 568.632 661.699 585.799 661.699 606.962V1451.91C661.699 1473.07 678.867 1490.24 700.03 1490.24Z" fill="white" stroke="white" stroke-width="15"/>
<path d="M920.971 1489.98L921.182 1490H921.393H922.999C943.128 1490 960.312 1474.18 961.32 1453.65C961.32 1453.65 961.32 1453.64 961.32 1453.64L1004.92 608.716L1004.92 608.699L1004.92 608.683C1005.91 587.571 989.853 569.601 968.624 568.404L968.584 568.402L968.545 568.4C946.892 567.407 929.47 583.531 928.276 604.694L928.275 604.712L928.274 604.73L884.678 1449.67L884.677 1449.69L884.677 1449.71C883.681 1470.82 899.742 1488.79 920.971 1489.98Z" fill="white" stroke="white" stroke-width="15"/>
<path d="M1269.33 191.44H998.141V117.768C998.141 56.9255 948.881 7.60276 888.063 7.50016V7.5H887.873H512.153C451.247 7.5 401.885 56.8621 401.885 117.768V191.44H130.695C62.8106 191.44 7.5 246.576 7.5 314.635V345.465C7.5 413.349 62.636 468.66 130.695 468.66H131.748L208.72 1529.45L208.721 1529.45C214.387 1606.49 279.292 1667.11 356.544 1667.11H1043.48C1120.78 1667.11 1185.89 1606.76 1191.31 1529.44C1191.31 1529.43 1191.31 1529.43 1191.31 1529.43L1268.28 468.66H1269.33C1337.22 468.66 1392.53 413.524 1392.53 345.465V314.635C1392.53 246.75 1337.39 191.44 1269.33 191.44ZM478.152 125.268H478.392V117.768C478.392 99.2688 493.5 84.161 511.999 84.161H887.909C906.408 84.161 921.516 99.2688 921.516 117.768V191.44H478.152V125.268ZM1114.86 1523.71L1114.62 1527.01C1110.31 1562.63 1079.79 1590.14 1043.5 1590.14H356.566C319.139 1590.14 287.737 1560.89 285.125 1523.73L285.124 1523.72L285.123 1523.71L208.391 468.514H1191.6L1114.86 1523.71ZM1269.76 268.196L1269.78 268.117C1295.34 268.219 1316.13 289.068 1316.13 314.65V345.48C1316.13 371.126 1295.24 392.014 1269.59 392.014L130.476 392.095C130.475 392.095 130.475 392.095 130.475 392.095C104.83 392.094 83.9417 371.206 83.9417 345.561V314.73C83.9417 289.085 104.83 268.196 130.476 268.196H1269.76Z" fill="white" stroke="white" stroke-width="15"/>
</svg>
