<svg width="895" height="895" viewBox="0 0 895 895" fill="none" xmlns="http://www.w3.org/2000/svg">
<path fill-rule="evenodd" clip-rule="evenodd" d="M447.04 894.08C693.936 894.08 894.08 693.936 894.08 447.04C894.08 200.144 693.936 0 447.04 0C200.144 0 0 200.144 0 447.04C0 693.936 200.144 894.08 447.04 894.08ZM447.04 812.8C649.046 812.8 812.8 649.046 812.8 447.04C812.8 245.034 649.046 81.28 447.04 81.28C245.034 81.28 81.28 245.034 81.28 447.04C81.28 649.046 245.034 812.8 447.04 812.8ZM396.24 436.922C396.24 408.84 419.041 386.076 447.04 386.076C475.096 386.076 497.84 408.738 497.84 436.922V640.029C497.84 668.111 475.039 690.876 447.04 690.876C418.984 690.876 396.24 668.214 396.24 640.029V436.922ZM386.08 264.16C386.08 230.491 413.441 203.2 447.04 203.2C480.709 203.2 508 230.561 508 264.16C508 297.829 480.639 325.12 447.04 325.12C413.371 325.12 386.08 297.759 386.08 264.16Z" fill="#DC3545"/>
</svg>
