<svg width="996" height="1013" viewBox="0 0 996 1013" fill="none" xmlns="http://www.w3.org/2000/svg">
<path d="M448.013 445.507V50C448.013 22.5 470.513 0 498.013 0C525.513 0 548.013 22.5 548.013 50V445.507C548.013 473.007 525.513 495.507 498.013 495.507C470.513 495.507 448.013 473.007 448.013 445.507ZM812.013 129.013C790.513 111.513 759.013 115.013 741.513 136.013C724.013 157.513 727.013 189.013 748.513 206.513C841.513 282.513 895.02 394.513 895.02 514.513C895.02 733.527 716.527 912.02 497.513 912.02C278.5 912.02 100.007 733.527 100.007 514.513C100.007 404.513 144.007 302.513 223.507 226.513C243.507 207.513 244.507 176.013 225.007 156.013C206.007 136.013 174.507 135.013 154.507 154.513C55.0067 249.513 0 377.527 0 515.007C0 789.5 223.013 1012.51 497.507 1012.51C772 1012.51 995.013 789.5 995.013 515.007C995.013 365.007 928.013 224.513 811.507 129.5L812.013 129.013Z" fill="white"/>
</svg>
