<svg width="1582" height="1780" viewBox="0 0 1582 1780" fill="none" xmlns="http://www.w3.org/2000/svg">
<path d="M219 64H1160L1288.5 271.5L430.5 291L280.5 414.5V1484.5L41.5 1292.5V309.5L105.5 136L219 64Z" fill="#002666" stroke="#002666"/>
<path d="M1022.79 0H329.453C147.88 0 0 147.88 0 329.453V1221.81C0 1403.63 147.88 1551.51 329.453 1551.51H1022.79C1204.6 1551.51 1352.24 1403.63 1352.24 1222.05V329.453C1352.24 147.88 1204.36 0 1022.79 0ZM1255.27 1222.05C1255.27 1350.3 1151.02 1454.53 1022.79 1454.53H329.453C201.208 1454.53 96.9733 1350.29 96.9733 1222.05V329.453C96.9733 201.208 201.213 96.9733 329.453 96.9733H1022.79C1151.03 96.9733 1255.27 201.219 1255.27 329.453V1222.05Z" fill="#EFDE47"/>
<path d="M345.5 383.5L495.5 305H1331.5L1517.5 476.5V1591.5L1331.5 1755.5H495.5L281.5 1591.5V548L345.5 383.5Z" fill="#002666" stroke="#002666"/>
<path d="M1251.79 228H558.453C376.88 228 229 375.88 229 557.453V1449.81C229 1631.63 376.88 1779.51 558.453 1779.51H1251.79C1433.6 1779.51 1581.24 1631.63 1581.24 1450.05V557.453C1581.24 375.88 1433.36 228 1251.79 228ZM1484.27 1450.05C1484.27 1578.3 1380.02 1682.53 1251.79 1682.53H558.453C430.208 1682.53 325.973 1578.29 325.973 1450.05V557.453C325.973 429.208 430.213 324.973 558.453 324.973H1251.79C1380.03 324.973 1484.27 429.219 1484.27 557.453V1450.05Z" fill="#EFDE47"/>
<path fill-rule="evenodd" clip-rule="evenodd" d="M900.384 572C923.103 572 941.522 590.42 941.522 613.138V657.417C1060.64 675.783 1155.15 772.676 1167.47 895.984L1186.68 1088.08L1299.71 1201.12C1311.48 1212.88 1315 1230.57 1308.63 1245.94C1302.26 1261.32 1287.26 1271.34 1270.63 1271.34H530.139C513.5 1271.34 498.502 1261.32 492.134 1245.94C485.766 1230.57 489.281 1212.88 501.052 1201.12L614.081 1088.08L633.291 895.984C645.618 772.67 740.127 675.775 859.243 657.417V613.138C859.243 590.42 877.662 572 900.381 572H900.384ZM900.384 736.553C804.75 736.553 724.672 809.019 715.159 904.179L694.489 1110.88C693.538 1120.34 689.353 1129.17 682.638 1135.88L629.455 1189.07H1171.31L1118.13 1135.88C1111.41 1129.17 1107.23 1120.34 1106.28 1110.88L1085.61 904.179C1076.09 809.019 996.02 736.553 900.384 736.553Z" fill="#EFDE47"/>
<path d="M859.246 1312.49C859.246 1328.75 864.937 1337.92 871.151 1343.45C878.121 1349.65 888.58 1353.62 900.385 1353.62C912.19 1353.62 922.647 1349.65 929.619 1343.45C935.832 1337.92 941.523 1328.75 941.523 1312.49H1023.8C1023.8 1351.07 1008.92 1383.04 984.281 1404.94C960.397 1426.17 929.719 1435.9 900.385 1435.9C871.052 1435.9 840.371 1426.17 816.489 1404.94C791.849 1383.04 776.971 1351.07 776.971 1312.49H859.246Z" fill="#EFDE47"/>
</svg>
