<svg width="1158" height="1216" viewBox="0 0 1158 1216" fill="none" xmlns="http://www.w3.org/2000/svg">
<path fill-rule="evenodd" clip-rule="evenodd" d="M579.004 0C610.979 0 636.904 25.9248 636.904 57.9001V120.22C804.554 146.07 937.574 282.442 954.92 455.992L981.957 726.361L1141.04 885.454C1157.61 902.012 1162.55 926.911 1153.59 948.546C1144.63 970.181 1123.52 984.29 1100.1 984.29H57.9008C34.4826 984.29 13.3732 970.182 4.41072 948.546C-4.55174 926.91 0.396128 902.011 16.9633 885.454L176.046 726.361L203.083 455.992C220.432 282.434 353.45 146.058 521.099 120.22V57.9001C521.099 25.9248 547.024 0 579 0H579.004ZM579.004 231.6C444.403 231.6 331.698 333.594 318.309 467.526L289.216 758.45C287.878 771.757 281.988 784.187 272.536 793.629L197.683 868.492H960.324L885.471 793.629C876.019 784.187 870.129 771.757 868.791 758.45L839.699 467.526C826.307 333.594 713.607 231.6 579.004 231.6Z" fill="#E6EBF2"/>
<path d="M521.103 1042.2C521.103 1065.09 529.114 1078 537.859 1085.78C547.669 1094.5 562.389 1100.1 579.004 1100.1C595.619 1100.1 610.338 1094.5 620.149 1085.78C628.895 1078 636.905 1065.09 636.905 1042.2H752.705C752.705 1096.51 731.765 1141.5 697.085 1172.33C663.469 1202.21 620.29 1215.9 579.005 1215.9C537.72 1215.9 494.538 1202.21 460.925 1172.33C426.245 1141.5 405.305 1096.51 405.305 1042.2H521.103Z" fill="#E6EBF2"/>
</svg>
