<svg width="1353" height="1552" viewBox="0 0 1353 1552" fill="none" xmlns="http://www.w3.org/2000/svg">
<path d="M1022.79 0H329.453C147.88 0 0 147.88 0 329.453V1221.81C0 1403.63 147.88 1551.51 329.453 1551.51H1022.79C1204.6 1551.51 1352.24 1403.63 1352.24 1222.05V329.453C1352.24 147.88 1204.36 0 1022.79 0ZM1255.27 1222.05C1255.27 1350.3 1151.02 1454.53 1022.79 1454.53H329.453C201.208 1454.53 96.9733 1350.29 96.9733 1222.05V329.453C96.9733 201.208 201.213 96.9733 329.453 96.9733H1022.79C1151.03 96.9733 1255.27 201.219 1255.27 329.453V1222.05Z" fill="#EFDE47"/>
<path fill-rule="evenodd" clip-rule="evenodd" d="M676.384 344C699.103 344 717.522 362.42 717.522 385.138V429.417C836.638 447.783 931.149 544.676 943.474 667.984L962.683 860.082L1075.71 973.118C1087.48 984.882 1091 1002.57 1084.63 1017.94C1078.26 1033.32 1063.26 1043.34 1046.63 1043.34H306.139C289.5 1043.34 274.502 1033.32 268.134 1017.94C261.766 1002.57 265.281 984.882 277.052 973.118L390.081 860.082L409.291 667.984C421.618 544.67 516.127 447.775 635.243 429.417V385.138C635.243 362.42 653.662 344 676.381 344H676.384ZM676.384 508.553C580.75 508.553 500.672 581.019 491.159 676.179L470.489 882.881C469.538 892.335 465.353 901.167 458.638 907.876L405.455 961.066H947.313L894.13 907.876C887.414 901.167 883.229 892.335 882.279 882.881L861.608 676.179C852.094 581.019 772.02 508.553 676.384 508.553Z" fill="#EFDE47"/>
<path d="M635.246 1084.49C635.246 1100.75 640.937 1109.92 647.151 1115.45C654.121 1121.65 664.58 1125.62 676.385 1125.62C688.19 1125.62 698.647 1121.65 705.619 1115.45C711.832 1109.92 717.523 1100.75 717.523 1084.49H799.8C799.8 1123.07 784.922 1155.04 760.281 1176.94C736.397 1198.17 705.719 1207.9 676.385 1207.9C647.052 1207.9 616.371 1198.17 592.489 1176.94C567.849 1155.04 552.971 1123.07 552.971 1084.49H635.246Z" fill="#EFDE47"/>
</svg>
