<svg width="957" height="1601" viewBox="0 0 957 1601" fill="none" xmlns="http://www.w3.org/2000/svg">
<path d="M265.253 1552.21C236.742 1582.24 197.321 1599.49 155.914 1600.06C114.513 1600.63 74.6326 1584.47 45.2993 1555.24C30.778 1540.86 19.3153 1523.69 11.6059 1504.76C-0.206594 1476.13 -3.08739 1444.6 3.35594 1414.31C9.79861 1384.01 25.2573 1356.38 47.6999 1335.03L559.54 824.967C563.181 821.378 566.056 817.081 567.993 812.347C572.024 802.873 572.024 792.164 567.993 782.696C566.108 777.931 563.227 773.629 559.54 770.077L47.7 259.25C18.044 227.739 3.03339 185.198 6.3454 142.052C9.6574 98.9071 30.9854 59.1565 65.1054 32.5419C99.2254 5.9272 142.975 -5.08887 185.627 2.1978C217.924 9.61967 247.195 26.6978 269.544 51.1618L907.451 687.802C931.096 710.302 947.191 739.573 953.513 771.594C958.305 796.11 956.961 821.427 949.602 845.291C942.258 869.073 929.269 890.718 911.742 908.39L265.253 1552.21Z" fill="#E6EBF2"/>
</svg>
