<svg width="1516" height="1698" viewBox="0 0 1516 1698" fill="none" xmlns="http://www.w3.org/2000/svg">
<path d="M644.624 1247.63C629.509 1263.55 608.61 1272.69 586.658 1272.99C564.709 1273.29 543.567 1264.73 528.015 1249.24C520.317 1241.62 514.24 1232.52 510.153 1222.49C503.89 1207.31 502.363 1190.6 505.779 1174.55C509.195 1158.49 517.39 1143.85 529.288 1132.54L800.642 862.212C802.572 860.31 804.096 858.033 805.123 855.524C807.261 850.503 807.261 844.828 805.123 839.81C804.124 837.284 802.597 835.004 800.642 833.122L529.288 562.396C513.566 545.696 505.608 523.15 507.364 500.284C509.12 477.418 520.427 456.351 538.516 442.246C556.605 428.141 579.798 422.303 602.411 426.165C619.533 430.098 635.051 439.149 646.9 452.114L985.088 789.518C997.624 801.443 1006.16 816.956 1009.51 833.926C1012.05 846.919 1011.34 860.337 1007.43 872.984C1003.54 885.587 996.655 897.059 987.363 906.425L644.624 1247.63Z" fill="#E6EBF2"/>
</svg>
