<svg width="1353" height="1552" viewBox="0 0 1353 1552" fill="none" xmlns="http://www.w3.org/2000/svg">
<path d="M1022.79 0H329.453C147.88 0 0 147.88 0 329.453V1221.81C0 1403.63 147.88 1551.51 329.453 1551.51H1022.79C1204.6 1551.51 1352.24 1403.63 1352.24 1222.05V329.453C1352.24 147.88 1204.36 0 1022.79 0ZM1255.27 1222.05C1255.27 1350.3 1151.02 1454.53 1022.79 1454.53H329.453C201.208 1454.53 96.9733 1350.29 96.9733 1222.05V329.453C96.9733 201.208 201.213 96.9733 329.453 96.9733H1022.79C1151.03 96.9733 1255.27 201.219 1255.27 329.453V1222.05Z" fill="#47EFE5"/>
<path d="M421.24 451.072C408.073 450.369 395.152 454.801 385.182 463.437C375.213 472.067 368.98 484.229 367.792 497.358C366.838 510.587 371.177 523.651 379.859 533.676C388.542 543.702 400.854 549.864 414.083 550.812C555.003 561.786 686.097 627.243 779.537 733.291C851.286 819.252 893.854 925.803 901.089 1037.53C901.917 1050.19 907.526 1062.06 916.782 1070.73C926.032 1079.41 938.241 1084.25 950.922 1084.27C952.031 1084.27 953.136 1084.2 954.245 1084.13C967.479 1083.28 979.829 1077.21 988.578 1067.24C997.328 1057.27 1001.75 1044.24 1000.89 1031.01C992.167 897.873 941.349 770.943 855.771 668.583C745.468 541.364 589.171 463.13 421.224 451.077L421.24 451.072Z" fill="#47EFE5"/>
<path d="M421.346 717.739C403.529 716.421 386.368 724.713 376.32 739.484C366.273 754.26 364.872 773.271 372.643 789.352C380.413 805.442 396.173 816.162 413.992 817.482C477.773 822.472 537.128 852.042 579.512 899.962C611.965 938.822 631.2 987.002 634.429 1037.53C635.257 1050.2 640.867 1062.08 650.127 1070.75C659.387 1079.44 671.605 1084.27 684.299 1084.28C685.372 1084.28 686.45 1084.21 687.554 1084.14C700.793 1083.31 713.152 1077.23 721.914 1067.26C730.669 1057.3 735.101 1044.26 734.231 1031.02C729.539 959.092 702.06 890.512 655.783 835.262C596.237 766.646 511.943 724.397 421.344 717.75L421.346 717.739Z" fill="#47EFE5"/>
<path d="M484.333 1034.27C484.333 1071.09 454.484 1100.94 417.667 1100.94C380.849 1100.94 351 1071.09 351 1034.27C351 997.453 380.849 967.603 417.667 967.603C454.484 967.603 484.333 997.453 484.333 1034.27Z" fill="#47EFE5"/>
</svg>
