<svg width="1451" height="1317" viewBox="0 0 1451 1317" fill="none" xmlns="http://www.w3.org/2000/svg">
<g clip-path="url(#clip0_124_2)">
<path d="M70.9066 666.8C57.74 666.097 44.8186 670.529 34.8493 679.165C24.8805 687.795 18.6466 699.957 17.4586 713.086C16.5055 726.315 20.8441 739.378 29.5263 749.403C38.2086 759.429 50.521 765.591 63.7503 766.539C204.67 777.513 335.764 842.971 429.204 949.019C500.953 1034.98 543.521 1141.53 550.756 1253.26C551.584 1265.92 557.193 1277.79 566.449 1286.46C575.699 1295.14 587.908 1299.98 600.589 1300C601.698 1300 602.803 1299.93 603.912 1299.86C617.146 1299.01 629.496 1292.94 638.245 1282.97C646.995 1273 651.422 1259.97 650.558 1246.74C641.834 1113.6 591.016 986.671 505.438 884.311C395.135 757.092 238.838 678.857 70.8912 666.804L70.9066 666.8Z" fill="#E6EBF2"/>
<path d="M71.0133 933.467C53.196 932.149 36.0346 940.441 25.9866 955.212C15.9397 969.988 14.5388 988.999 22.3096 1005.08C30.0804 1021.17 45.8402 1031.89 63.6589 1033.21C127.44 1038.2 186.795 1067.77 229.179 1115.69C261.632 1154.55 280.867 1202.73 284.096 1253.26C284.924 1265.93 290.534 1277.81 299.794 1286.48C309.054 1295.17 321.272 1300 333.966 1300.01C335.039 1300.01 336.117 1299.94 337.221 1299.87C350.46 1299.04 362.819 1292.96 371.581 1282.99C380.336 1273.03 384.768 1259.99 383.898 1246.75C379.206 1174.82 351.727 1106.24 305.45 1050.99C245.904 982.374 161.61 940.125 71.0105 933.478L71.0133 933.467Z" fill="#E6EBF2"/>
<path d="M134 1250C134 1286.82 104.151 1316.67 67.3333 1316.67C30.516 1316.67 0.666626 1286.82 0.666626 1250C0.666626 1213.18 30.516 1183.33 67.3333 1183.33C104.151 1183.33 134 1213.18 134 1250Z" fill="#E6EBF2"/>
<path d="M1200.67 0H267.333C201.052 0.0781253 137.511 26.4427 90.64 73.3067C43.776 120.176 17.4106 183.719 17.3333 250V418.68C17.3333 436.544 26.8645 453.049 42.3333 461.983C57.8021 470.916 76.864 470.915 92.3333 461.983C107.803 453.05 117.333 436.545 117.333 418.68V250C117.38 210.235 133.203 172.109 161.323 143.989C189.443 115.869 227.568 100.047 267.333 100H1200.67C1240.43 100.047 1278.56 115.869 1306.68 143.989C1334.8 172.109 1350.62 210.235 1350.67 250V983.333C1350.62 1023.1 1334.8 1061.22 1306.68 1089.34C1278.56 1117.46 1240.43 1133.29 1200.67 1133.33H880.68C862.816 1133.33 846.311 1142.86 837.377 1158.33C828.445 1173.8 828.445 1192.86 837.377 1208.33C846.31 1223.8 862.815 1233.33 880.68 1233.33H1200.67C1266.95 1233.26 1330.49 1206.89 1377.36 1160.03C1424.22 1113.16 1450.59 1049.61 1450.67 983.333V250C1450.59 183.719 1424.22 120.177 1377.36 73.3067C1330.49 26.4427 1266.95 0.0773333 1200.67 0Z" fill="#E6EBF2"/>
</g>
<defs>
<clipPath id="clip0_124_2">
<rect width="1451" height="1317" fill="white"/>
</clipPath>
</defs>
</svg>
