<svg width="1582" height="1780" viewBox="0 0 1582 1780" fill="none" xmlns="http://www.w3.org/2000/svg">
<path d="M219 64H1160L1288.5 271.5L430.5 291L280.5 414.5V1484.5L41.5 1292.5V309.5L105.5 136L219 64Z" fill="#002666" stroke="#002666"/>
<path d="M1022.79 0H329.453C147.88 0 0 147.88 0 329.453V1221.81C0 1403.63 147.88 1551.51 329.453 1551.51H1022.79C1204.6 1551.51 1352.24 1403.63 1352.24 1222.05V329.453C1352.24 147.88 1204.36 0 1022.79 0ZM1255.27 1222.05C1255.27 1350.3 1151.02 1454.53 1022.79 1454.53H329.453C201.208 1454.53 96.9733 1350.29 96.9733 1222.05V329.453C96.9733 201.208 201.213 96.9733 329.453 96.9733H1022.79C1151.03 96.9733 1255.27 201.219 1255.27 329.453V1222.05Z" fill="#47EFE5"/>
<path d="M345.5 383.5L495.5 305H1331.5L1517.5 476.5V1591.5L1331.5 1755.5H495.5L281.5 1591.5V548L345.5 383.5Z" fill="#002666" stroke="#002666"/>
<path d="M1251.79 228H558.453C376.88 228 229 375.88 229 557.453V1449.81C229 1631.63 376.88 1779.51 558.453 1779.51H1251.79C1433.6 1779.51 1581.24 1631.63 1581.24 1450.05V557.453C1581.24 375.88 1433.36 228 1251.79 228ZM1484.27 1450.05C1484.27 1578.3 1380.02 1682.53 1251.79 1682.53H558.453C430.208 1682.53 325.973 1578.29 325.973 1450.05V557.453C325.973 429.208 430.213 324.973 558.453 324.973H1251.79C1380.03 324.973 1484.27 429.219 1484.27 557.453V1450.05Z" fill="#47EFE5"/>
<path d="M650.24 705.072C637.073 704.369 624.152 708.801 614.182 717.437C604.213 726.067 597.98 738.229 596.792 751.358C595.838 764.587 600.177 777.651 608.859 787.676C617.542 797.702 629.854 803.864 643.083 804.812C784.003 815.786 915.097 881.243 1008.54 987.291C1080.29 1073.25 1122.85 1179.8 1130.09 1291.53C1130.92 1304.19 1136.53 1316.06 1145.78 1324.73C1155.03 1333.41 1167.24 1338.25 1179.92 1338.27C1181.03 1338.27 1182.14 1338.2 1183.24 1338.13C1196.48 1337.28 1208.83 1331.21 1217.58 1321.24C1226.33 1311.27 1230.75 1298.24 1229.89 1285.01C1221.17 1151.87 1170.35 1024.94 1084.77 922.583C974.468 795.364 818.171 717.13 650.224 705.077L650.24 705.072Z" fill="#47EFE5"/>
<path d="M650.346 971.739C632.529 970.421 615.368 978.713 605.32 993.484C595.273 1008.26 593.872 1027.27 601.643 1043.35C609.413 1059.44 625.173 1070.16 642.992 1071.48C706.773 1076.47 766.128 1106.04 808.512 1153.96C840.965 1192.82 860.2 1241 863.429 1291.53C864.257 1304.2 869.867 1316.08 879.127 1324.75C888.387 1333.44 900.605 1338.27 913.299 1338.28C914.372 1338.28 915.45 1338.21 916.554 1338.14C929.793 1337.31 942.152 1331.23 950.914 1321.26C959.669 1311.3 964.101 1298.26 963.231 1285.02C958.539 1213.09 931.06 1144.51 884.783 1089.26C825.237 1020.65 740.943 978.397 650.344 971.75L650.346 971.739Z" fill="#47EFE5"/>
<path d="M713.333 1288.27C713.333 1325.09 683.484 1354.94 646.667 1354.94C609.849 1354.94 580 1325.09 580 1288.27C580 1251.45 609.849 1221.6 646.667 1221.6C683.484 1221.6 713.333 1251.45 713.333 1288.27Z" fill="#47EFE5"/>
</svg>
