<svg width="1353" height="1552" viewBox="0 0 1353 1552" fill="none" xmlns="http://www.w3.org/2000/svg">
<path d="M1022.79 0H329.453C147.88 0 0 147.88 0 329.453V1221.81C0 1403.63 147.88 1551.51 329.453 1551.51H1022.79C1204.6 1551.51 1352.24 1403.63 1352.24 1222.05V329.453C1352.24 147.88 1204.36 0 1022.79 0ZM1255.27 1222.05C1255.27 1350.3 1151.02 1454.53 1022.79 1454.53H329.453C201.208 1454.53 96.9733 1350.29 96.9733 1222.05V329.453C96.9733 201.208 201.213 96.9733 329.453 96.9733H1022.79C1151.03 96.9733 1255.27 201.219 1255.27 329.453V1222.05Z" fill="#EF6F47"/>
<path d="M379.157 1192.55L379.157 407.579C379.157 382.365 358.793 362 333.579 362C308.364 362 288 382.364 288 407.579L288 1192.79C288 1218.01 308.364 1238.37 333.579 1238.37C358.792 1238.37 379.157 1217.76 379.157 1192.55V1192.55Z" fill="#EF6F47"/>
<path d="M972 570.559V1183.44C972 1213.62 992.329 1238 1017.5 1238C1042.67 1238 1063 1213.62 1063 1183.44V570.559C1063 540.378 1042.67 516 1017.5 516C992.325 516.293 972 540.67 972 570.559Z" fill="#EF6F47"/>
<path d="M630 680.579V1192.58C630 1217.79 650.364 1238.16 675.579 1238.16C700.793 1238.16 721.157 1217.79 721.157 1192.58V680.579C721.157 655.365 700.793 635 675.579 635C650.365 635.245 630 655.609 630 680.579Z" fill="#EF6F47"/>
</svg>
