<svg width="1582" height="1780" viewBox="0 0 1582 1780" fill="none" xmlns="http://www.w3.org/2000/svg">
<path d="M219 64H1160L1288.5 271.5L430.5 291L280.5 414.5V1484.5L41.5 1292.5V309.5L105.5 136L219 64Z" fill="#002666" stroke="#002666"/>
<path d="M1022.79 0H329.453C147.88 0 0 147.88 0 329.453V1221.81C0 1403.63 147.88 1551.51 329.453 1551.51H1022.79C1204.6 1551.51 1352.24 1403.63 1352.24 1222.05V329.453C1352.24 147.88 1204.36 0 1022.79 0ZM1255.27 1222.05C1255.27 1350.3 1151.02 1454.53 1022.79 1454.53H329.453C201.208 1454.53 96.9733 1350.29 96.9733 1222.05V329.453C96.9733 201.208 201.213 96.9733 329.453 96.9733H1022.79C1151.03 96.9733 1255.27 201.219 1255.27 329.453V1222.05Z" fill="#EF6F47"/>
<path d="M345.5 383.5L495.5 305H1331.5L1517.5 476.5V1591.5L1331.5 1755.5H495.5L281.5 1591.5V548L345.5 383.5Z" fill="#002666" stroke="#002666"/>
<path d="M1251.79 228H558.453C376.88 228 229 375.88 229 557.453V1449.81C229 1631.63 376.88 1779.51 558.453 1779.51H1251.79C1433.6 1779.51 1581.24 1631.63 1581.24 1450.05V557.453C1581.24 375.88 1433.36 228 1251.79 228ZM1484.27 1450.05C1484.27 1578.3 1380.02 1682.53 1251.79 1682.53H558.453C430.208 1682.53 325.973 1578.29 325.973 1450.05V557.453C325.973 429.208 430.213 324.973 558.453 324.973H1251.79C1380.03 324.973 1484.27 429.219 1484.27 557.453V1450.05Z" fill="#EF6F47"/>
<path d="M608.157 1420.55L608.157 635.579C608.157 610.365 587.793 590 562.579 590C537.364 590 517 610.364 517 635.579L517 1420.79C517 1446.01 537.364 1466.37 562.579 1466.37C587.792 1466.37 608.157 1445.76 608.157 1420.55V1420.55Z" fill="#EF6F47"/>
<path d="M1201 798.559V1411.44C1201 1441.62 1221.33 1466 1246.5 1466C1271.67 1466 1292 1441.62 1292 1411.44V798.559C1292 768.378 1271.67 744 1246.5 744C1221.32 744.293 1201 768.67 1201 798.559Z" fill="#EF6F47"/>
<path d="M859 908.579V1420.58C859 1445.79 879.364 1466.16 904.579 1466.16C929.793 1466.16 950.157 1445.79 950.157 1420.58V908.579C950.157 883.365 929.793 863 904.579 863C879.365 863.245 859 883.609 859 908.579Z" fill="#EF6F47"/>
</svg>
