<svg width="908" height="908" viewBox="0 0 908 908" fill="none" xmlns="http://www.w3.org/2000/svg">
<path fill-rule="evenodd" clip-rule="evenodd" d="M1 437.974V763.88C1 842.599 65.2654 906.867 143.987 906.867H764.88C843.599 906.867 907.867 842.602 907.867 763.88V142.987C907.867 64.2681 843.602 0 764.88 0H438.974V73.448H764.88C803.058 73.448 834.427 104.812 834.427 142.995V763.875C834.427 802.052 803.063 833.422 764.88 833.422H143.987C105.81 833.422 74.4401 802.058 74.4401 763.875V437.968L1 437.974ZM510.334 457.4V295.147H583.782V582.774H296.155V509.326L458.395 509.331L32.0347 82.9706L83.9667 31.0386L510.334 457.4Z" fill="#E6EBF2"/>
</svg>
