<svg width="1136" height="1310" viewBox="0 0 1136 1310" fill="none" xmlns="http://www.w3.org/2000/svg">
<path d="M825.148 135.432L825.151 135.436L1023.29 384.512C1023.29 384.513 1023.29 384.514 1023.29 384.514C1043.97 410.535 1055.36 443.396 1055.36 477.389V1081.69C1055.36 1161.99 993.271 1226.54 917.399 1226.54H219.286C143.41 1226.54 81.3229 1161.99 81.3229 1081.69V228.311C81.3229 148.006 143.414 83.4652 219.286 83.4652L719.322 83.4664C760.108 83.4664 798.93 102.426 825.148 135.432ZM1079.69 336.154L1079.69 336.153L881.591 87.0751C841.539 36.7144 782.088 7.5 719.298 7.5H219.286C102.362 7.5 8.19336 106.673 8.19336 228.311L8.20151 1081.69C8.20151 1203.33 102.365 1302.5 219.294 1302.5H917.407C1034.33 1302.5 1128.5 1203.33 1128.5 1081.69V477.393C1128.5 425.848 1111.26 375.852 1079.69 336.154Z" fill="#E6EBF2" stroke="#E6EBF2" stroke-width="15"/>
<path d="M742.871 37.9453H725.345L728.322 41.0647C715.233 46.9571 706.311 60.5484 706.311 75.9694V289.28C706.311 410.914 800.474 510.092 917.404 510.092H1062.87C1083.36 510.092 1099.44 492.81 1099.44 472.135C1099.44 451.459 1083.36 434.178 1062.87 434.178H917.404C841.529 434.178 779.44 369.635 779.44 289.271V75.9596C779.44 55.3125 763.446 37.9453 742.871 37.9453Z" fill="#E6EBF2" stroke="#E6EBF2" stroke-width="15"/>
<path d="M416.267 868.28L416.267 868.28C436.055 847.547 467.928 847.547 487.717 868.28L538.82 921.823C538.821 921.823 538.821 921.824 538.821 921.824C587.2 972.52 665.831 972.52 714.217 921.824L943.396 681.705C957.506 666.922 957.506 643.046 943.396 628.262C929.097 613.281 905.72 613.281 891.421 628.262L662.249 868.374C642.46 889.059 610.577 889.059 590.787 868.374L539.689 814.838C491.31 764.14 412.679 764.141 364.293 814.837L193.313 993.978C179.203 1008.76 179.203 1032.64 193.313 1047.42C207.612 1062.4 230.989 1062.4 245.288 1047.42L416.267 868.28Z" fill="#E6EBF2" stroke="#E6EBF2" stroke-width="15"/>
</svg>
