<svg width="848" height="848" viewBox="0 0 848 848" fill="none" xmlns="http://www.w3.org/2000/svg">
<path d="M343.387 0.800252L324.179 106.603C305.507 112.473 287.424 120.046 270.335 128.963L181.537 67.8749L67.5533 181.859L128.955 270.338C120.002 287.478 112.485 305.452 106.595 324.182L0.791992 343.39V504.603L106.599 523.811C112.5 542.592 120.287 560.478 129.271 577.655L67.552 666.134L181.536 780.118L270.02 719.03C287.187 728.004 305.416 735.488 324.181 741.39L343.389 847.192H504.603L523.811 741.39C542.54 735.499 560.513 727.983 577.655 719.03L666.133 780.118L780.123 666.134L718.721 577.655C727.638 560.592 735.2 542.77 741.081 524.124L847.191 504.603V343.39L741.076 324.182C735.227 305.572 727.904 287.687 719.035 270.651L780.123 181.854L666.133 67.8696L577.655 128.958C560.515 120.004 542.54 112.488 523.811 106.598L504.603 0.794922H343.389L343.387 0.800252ZM423.996 242.627C524.168 242.627 605.369 323.83 605.369 424C605.369 524.172 524.167 605.374 423.996 605.374C323.825 605.374 242.623 524.171 242.623 424C242.623 323.834 323.825 242.627 423.996 242.627Z" fill="#E6EBF2"/>
</svg>
