<svg width="1316" height="1552" viewBox="0 0 1316 1552" fill="none" xmlns="http://www.w3.org/2000/svg">
<path d="M987.213 0.245211H328.787C147.693 0.245211 0.306641 147.632 0.306641 328.725V1223.03C0.306641 1404.37 147.707 1551.75 328.787 1551.75H800.547C887.577 1551.75 970 1518.05 1032.31 1456.48L1218.24 1271.75C1280.06 1210.41 1315.45 1125.32 1315.45 1038.29L1315.46 328.721C1315.7 147.628 1168.31 0.241211 987.218 0.241211L987.213 0.245211ZM1218.73 1038.3C1218.73 1099.63 1193.76 1159.75 1150.13 1202.9L964.196 1387.38C920.311 1431.02 862.128 1454.77 800.556 1454.77H328.796C201.041 1454.77 97.276 1350.77 97.276 1223.25V328.708C97.276 201.192 201.276 97.1879 328.796 97.1879H986.983C1114.74 97.1879 1218.5 201.188 1218.5 328.708V1038.28L1218.73 1038.3Z" fill="#7AD830"/>
<path d="M1043.45 395.333H272.547C248.792 395.333 229.396 414.729 229.396 438.484C229.396 462.238 248.792 481.634 272.547 481.634H1043.45C1067.21 481.634 1086.6 462.238 1086.6 438.484C1086.6 414.484 1067.21 395.333 1043.45 395.333H1043.45Z" fill="#7AD830"/>
<path d="M1044.06 733H273.151C249.396 733 230 752.396 230 776.151C230 799.905 249.396 819.301 273.151 819.301H1044.06C1067.81 819.301 1087.21 799.905 1087.21 776.151C1087.2 752.391 1067.81 733 1044.05 733H1044.06Z" fill="#7AD830"/>
<path d="M783.911 1071H272.151C248.396 1071 229 1090.4 229 1114.15C229 1137.91 248.396 1157.3 272.151 1157.3H783.911C807.665 1157.3 827.061 1137.91 827.061 1114.15C827.061 1090.39 807.671 1071 783.911 1071Z" fill="#7AD830"/>
</svg>
