<svg width="1546" height="1780" viewBox="0 0 1546 1780" fill="none" xmlns="http://www.w3.org/2000/svg">
<path d="M63 244.5L170 101.5L556 44.5H1063.5L1261.5 276.5H528L368 335.5L292 487.5V1516L63 1316V244.5Z" fill="#002666" stroke="#002666"/>
<path d="M986.907 0.00400035H328.48C147.387 0.00400035 0 147.391 0 328.484V1222.79C0 1404.12 147.4 1551.51 328.48 1551.51H800.24C887.271 1551.51 969.693 1517.81 1032 1456.24L1217.93 1271.51C1279.75 1210.17 1315.15 1125.08 1315.15 1038.05L1315.15 328.48C1315.4 147.387 1168.01 0 986.912 0L986.907 0.00400035ZM1218.43 1038.06C1218.43 1099.39 1193.46 1159.51 1149.82 1202.66L963.889 1387.14C920.004 1430.78 861.821 1454.53 800.249 1454.53H328.489C200.735 1454.53 96.9693 1350.53 96.9693 1223.01V328.467C96.9693 200.951 200.969 96.9467 328.489 96.9467H986.676C1114.43 96.9467 1218.2 200.947 1218.2 328.467V1038.04L1218.43 1038.06Z" fill="#7AD830"/>
<path d="M1043.75 732.759H272.844C249.089 732.759 229.693 752.155 229.693 775.909C229.693 799.664 249.089 819.06 272.844 819.06H1043.75C1067.51 819.06 1086.9 799.664 1086.9 775.909C1086.9 752.149 1067.51 732.759 1043.75 732.759H1043.75Z" fill="#7AD830"/>
<path d="M783.604 1070.76H271.844C248.089 1070.76 228.693 1090.15 228.693 1113.91C228.693 1137.66 248.089 1157.06 271.844 1157.06H783.604C807.359 1157.06 826.755 1137.66 826.755 1113.91C826.755 1090.15 807.364 1070.76 783.604 1070.76Z" fill="#7AD830"/>
<path d="M355.312 397.962L483.437 321H1324.48L1488 503.355V1329.84C1476.2 1350.92 1391.28 1449.06 1146 1672.98L961.041 1722H626.02L419.624 1672.98L291 1568.08V986.696V503.355L355.312 397.962Z" fill="#002666" stroke="#002666"/>
<path d="M1216.91 228.004H558.48C377.387 228.004 230 375.391 230 556.484V1450.79C230 1632.12 377.4 1779.51 558.48 1779.51H1030.24C1117.27 1779.51 1199.69 1745.81 1262 1684.24L1447.93 1499.51C1509.75 1438.17 1545.15 1353.08 1545.15 1266.05L1545.15 556.48C1545.4 375.387 1398.01 228 1216.91 228L1216.91 228.004ZM1448.43 1266.06C1448.43 1327.39 1423.46 1387.51 1379.82 1430.66L1193.89 1615.14C1150 1658.78 1091.82 1682.53 1030.25 1682.53H558.489C430.735 1682.53 326.969 1578.53 326.969 1451.01V556.467C326.969 428.951 430.969 324.947 558.489 324.947H1216.68C1344.43 324.947 1448.2 428.947 1448.2 556.467V1266.04L1448.43 1266.06Z" fill="#7AD830"/>
<path d="M1273.15 623.092H502.24C478.485 623.092 459.089 642.488 459.089 666.242C459.089 689.997 478.485 709.393 502.24 709.393H1273.15C1296.9 709.393 1316.3 689.997 1316.3 666.242C1316.29 642.242 1296.9 623.092 1273.14 623.092H1273.15Z" fill="#7AD830"/>
<path d="M1273.75 960.759H502.844C479.089 960.759 459.693 980.155 459.693 1003.91C459.693 1027.66 479.089 1047.06 502.844 1047.06H1273.75C1297.51 1047.06 1316.9 1027.66 1316.9 1003.91C1316.9 980.149 1297.51 960.759 1273.75 960.759H1273.75Z" fill="#7AD830"/>
<path d="M1013.6 1298.76H501.844C478.089 1298.76 458.693 1318.15 458.693 1341.91C458.693 1365.66 478.089 1385.06 501.844 1385.06H1013.6C1037.36 1385.06 1056.75 1365.66 1056.75 1341.91C1056.75 1318.15 1037.36 1298.76 1013.6 1298.76Z" fill="#7AD830"/>
</svg>
