<svg width="2984" height="701" viewBox="0 0 2984 701" fill="none" xmlns="http://www.w3.org/2000/svg">
<path d="M51.15 517V300.3H13.2V244.2H51.15V226.6C51.15 202.767 55 182.233 62.7 165C70.7667 147.4 81.95 133.833 96.25 124.3C110.917 114.767 127.967 110 147.4 110C159.133 110 170.867 111.467 182.6 114.4C194.7 117.333 206.617 121.55 218.35 127.05L203.5 182.6C198 179.667 191.583 177.283 184.25 175.45C176.917 173.25 169.95 172.15 163.35 172.15C150.883 172.15 141.35 176.55 134.75 185.35C128.15 194.15 124.85 206.983 124.85 223.85V244.2H195.25V300.3H124.85V517H51.15ZM204.703 431.75C204.703 413.05 209.836 396.733 220.103 382.8C230.736 368.5 245.403 357.5 264.103 349.8C282.803 342.1 304.253 338.25 328.453 338.25C340.553 338.25 352.836 339.167 365.303 341C377.77 342.833 388.586 345.767 397.753 349.8V334.4C397.753 316.067 392.253 301.95 381.253 292.05C370.62 282.15 354.67 277.2 333.403 277.2C317.636 277.2 302.603 279.95 288.303 285.45C274.003 290.95 258.97 299.017 243.203 309.65L219.553 261.25C238.62 248.783 258.053 239.433 277.853 233.2C298.02 226.967 319.103 223.85 341.103 223.85C382.17 223.85 414.07 234.117 436.803 254.65C459.903 275.183 471.453 304.517 471.453 342.65V434.5C471.453 442.2 472.736 447.7 475.303 451C478.236 454.3 482.82 456.317 489.053 457.05V517C482.453 518.1 476.403 519.017 470.903 519.75C465.77 520.483 461.37 520.85 457.703 520.85C443.036 520.85 431.853 517.55 424.153 510.95C416.82 504.35 412.236 496.283 410.403 486.75L408.753 471.9C396.286 488.033 380.703 500.5 362.003 509.3C343.303 518.1 324.236 522.5 304.803 522.5C285.736 522.5 268.503 518.65 253.103 510.95C238.07 502.883 226.153 492.067 217.353 478.5C208.92 464.567 204.703 448.983 204.703 431.75ZM384.003 446.6C388.036 442.2 391.336 437.8 393.903 433.4C396.47 429 397.753 424.967 397.753 421.3V392.15C388.953 388.483 379.42 385.733 369.153 383.9C358.886 381.7 349.17 380.6 340.003 380.6C320.936 380.6 305.17 384.817 292.703 393.25C280.603 401.317 274.553 412.133 274.553 425.7C274.553 433.033 276.57 440 280.603 446.6C284.636 453.2 290.503 458.517 298.203 462.55C305.903 466.583 315.07 468.6 325.703 468.6C336.703 468.6 347.52 466.583 358.153 462.55C368.786 458.15 377.403 452.833 384.003 446.6ZM700.923 292.6C678.557 292.6 658.573 297 640.973 305.8C623.373 314.233 610.723 326.517 603.023 342.65V517H529.323V228.8H596.973V290.4C607.24 270.6 620.257 255.017 636.023 243.65C651.79 232.283 668.473 226.05 686.073 224.95C690.107 224.95 693.223 224.95 695.423 224.95C697.623 224.95 699.457 225.133 700.923 225.5V292.6ZM1178.72 517H1105.02V355.3C1105.02 332.567 1100.99 315.883 1092.92 305.25C1085.22 294.25 1074.4 288.75 1060.47 288.75C1046.17 288.75 1032.42 294.433 1019.22 305.8C1006.39 316.8 997.219 331.283 991.719 349.25V517H918.019V355.3C918.019 332.2 913.985 315.333 905.919 304.7C898.219 294.067 887.402 288.75 873.469 288.75C859.169 288.75 845.419 294.25 832.219 305.25C819.385 316.25 810.219 330.733 804.719 348.7V517H731.019V228.8H797.569V282.15C808.569 263.45 823.235 249.15 841.569 239.25C859.902 228.983 880.985 223.85 904.819 223.85C928.652 223.85 947.169 229.717 960.369 241.45C973.935 253.183 982.552 267.667 986.219 284.9C997.952 265.1 1012.8 250.067 1030.77 239.8C1049.1 229.167 1069.64 223.85 1092.37 223.85C1110.34 223.85 1124.82 227.15 1135.82 233.75C1147.19 239.983 1155.99 248.6 1162.22 259.6C1168.45 270.233 1172.67 282.333 1174.87 295.9C1177.44 309.467 1178.72 323.217 1178.72 337.15V517ZM1338.03 522.5C1313.47 522.5 1290 518.467 1267.63 510.4C1245.27 502.333 1226.02 490.417 1209.88 474.65L1236.28 426.8C1253.52 440.733 1270.38 451 1286.88 457.6C1303.75 464.2 1319.88 467.5 1335.28 467.5C1349.58 467.5 1360.95 464.933 1369.38 459.8C1378.18 454.667 1382.58 446.967 1382.58 436.7C1382.58 429.733 1380.2 424.417 1375.43 420.75C1370.67 416.717 1363.7 413.233 1354.53 410.3C1345.73 407.367 1334.92 404.067 1322.08 400.4C1300.82 393.433 1283.03 386.65 1268.73 380.05C1254.43 373.45 1243.62 365.2 1236.28 355.3C1229.32 345.033 1225.83 332.017 1225.83 316.25C1225.83 297.183 1230.6 280.867 1240.13 267.3C1250.03 253.367 1263.6 242.55 1280.83 234.85C1298.43 227.15 1318.97 223.3 1342.43 223.3C1362.97 223.3 1382.4 226.6 1400.73 233.2C1419.07 239.433 1435.75 249.7 1450.78 264L1421.08 310.75C1406.42 299.383 1392.48 291.133 1379.28 286C1366.08 280.5 1352.7 277.75 1339.13 277.75C1331.43 277.75 1324.1 278.667 1317.13 280.5C1310.53 282.333 1305.03 285.45 1300.63 289.85C1296.6 293.883 1294.58 299.75 1294.58 307.45C1294.58 314.417 1296.42 319.917 1300.08 323.95C1304.12 327.617 1309.98 330.917 1317.68 333.85C1325.75 336.783 1335.47 340.083 1346.83 343.75C1369.93 350.35 1389.37 357.133 1405.13 364.1C1421.27 371.067 1433.37 379.683 1441.43 389.95C1449.5 399.85 1453.53 413.6 1453.53 431.2C1453.53 459.8 1443.08 482.167 1422.18 498.3C1401.28 514.433 1373.23 522.5 1338.03 522.5ZM1626.31 522.5C1603.21 522.5 1582.31 518.65 1563.61 510.95C1544.91 502.883 1528.96 492.067 1515.76 478.5C1502.56 464.567 1492.29 448.8 1484.96 431.2C1477.99 413.233 1474.51 394.35 1474.51 374.55C1474.51 347.05 1480.56 321.933 1492.66 299.2C1505.13 276.467 1522.73 258.317 1545.46 244.75C1568.56 230.817 1595.69 223.85 1626.86 223.85C1658.39 223.85 1685.34 230.817 1707.71 244.75C1730.08 258.317 1747.13 276.467 1758.86 299.2C1770.96 321.567 1777.01 345.767 1777.01 371.8C1777.01 376.2 1776.83 380.783 1776.46 385.55C1776.09 389.95 1775.73 393.617 1775.36 396.55H1552.61C1554.08 411.217 1558.29 424.05 1565.26 435.05C1572.59 446.05 1581.76 454.483 1592.76 460.35C1604.13 465.85 1616.23 468.6 1629.06 468.6C1643.73 468.6 1657.48 465.117 1670.31 458.15C1683.51 450.817 1692.49 441.283 1697.26 429.55L1760.51 447.15C1753.54 461.817 1743.46 474.833 1730.26 486.2C1717.43 497.567 1702.21 506.55 1684.61 513.15C1667.01 519.383 1647.58 522.5 1626.31 522.5ZM1550.96 349.8H1701.66C1700.19 335.133 1695.98 322.483 1689.01 311.85C1682.41 300.85 1673.61 292.417 1662.61 286.55C1651.61 280.317 1639.33 277.2 1625.76 277.2C1612.56 277.2 1600.46 280.317 1589.46 286.55C1578.83 292.417 1570.03 300.85 1563.06 311.85C1556.46 322.483 1552.43 335.133 1550.96 349.8ZM2078.76 517H2005.06V355.3C2005.06 332.2 2001.03 315.333 1992.96 304.7C1984.89 294.067 1973.71 288.75 1959.41 288.75C1949.51 288.75 1939.43 291.317 1929.16 296.45C1919.26 301.583 1910.28 308.733 1902.21 317.9C1894.14 326.7 1888.28 336.967 1884.61 348.7V517H1810.91V228.8H1877.46V282.15C1884.79 269.683 1894.14 259.233 1905.51 250.8C1916.88 242 1929.89 235.4 1944.56 231C1959.59 226.233 1975.36 223.85 1991.86 223.85C2009.83 223.85 2024.49 227.15 2035.86 233.75C2047.59 239.983 2056.39 248.6 2062.26 259.6C2068.49 270.233 2072.71 282.333 2074.91 295.9C2077.48 309.467 2078.76 323.217 2078.76 337.15V517ZM2237.99 522.5C2213.43 522.5 2189.96 518.467 2167.59 510.4C2145.23 502.333 2125.98 490.417 2109.84 474.65L2136.24 426.8C2153.48 440.733 2170.34 451 2186.84 457.6C2203.71 464.2 2219.84 467.5 2235.24 467.5C2249.54 467.5 2260.91 464.933 2269.34 459.8C2278.14 454.667 2282.54 446.967 2282.54 436.7C2282.54 429.733 2280.16 424.417 2275.39 420.75C2270.63 416.717 2263.66 413.233 2254.49 410.3C2245.69 407.367 2234.88 404.067 2222.04 400.4C2200.78 393.433 2182.99 386.65 2168.69 380.05C2154.39 373.45 2143.58 365.2 2136.24 355.3C2129.28 345.033 2125.79 332.017 2125.79 316.25C2125.79 297.183 2130.56 280.867 2140.09 267.3C2149.99 253.367 2163.56 242.55 2180.79 234.85C2198.39 227.15 2218.93 223.3 2242.39 223.3C2262.93 223.3 2282.36 226.6 2300.69 233.2C2319.03 239.433 2335.71 249.7 2350.74 264L2321.04 310.75C2306.38 299.383 2292.44 291.133 2279.24 286C2266.04 280.5 2252.66 277.75 2239.09 277.75C2231.39 277.75 2224.06 278.667 2217.09 280.5C2210.49 282.333 2204.99 285.45 2200.59 289.85C2196.56 293.883 2194.54 299.75 2194.54 307.45C2194.54 314.417 2196.38 319.917 2200.04 323.95C2204.08 327.617 2209.94 330.917 2217.64 333.85C2225.71 336.783 2235.43 340.083 2246.79 343.75C2269.89 350.35 2289.33 357.133 2305.09 364.1C2321.23 371.067 2333.33 379.683 2341.39 389.95C2349.46 399.85 2353.49 413.6 2353.49 431.2C2353.49 459.8 2343.04 482.167 2322.14 498.3C2301.24 514.433 2273.19 522.5 2237.99 522.5ZM2526.27 522.5C2503.17 522.5 2482.27 518.65 2463.57 510.95C2444.87 502.883 2428.92 492.067 2415.72 478.5C2402.52 464.567 2392.25 448.8 2384.92 431.2C2377.95 413.233 2374.47 394.35 2374.47 374.55C2374.47 347.05 2380.52 321.933 2392.62 299.2C2405.09 276.467 2422.69 258.317 2445.42 244.75C2468.52 230.817 2495.65 223.85 2526.82 223.85C2558.35 223.85 2585.3 230.817 2607.67 244.75C2630.04 258.317 2647.09 276.467 2658.82 299.2C2670.92 321.567 2676.97 345.767 2676.97 371.8C2676.97 376.2 2676.79 380.783 2676.42 385.55C2676.05 389.95 2675.69 393.617 2675.32 396.55H2452.57C2454.04 411.217 2458.25 424.05 2465.22 435.05C2472.55 446.05 2481.72 454.483 2492.72 460.35C2504.09 465.85 2516.19 468.6 2529.02 468.6C2543.69 468.6 2557.44 465.117 2570.27 458.15C2583.47 450.817 2592.45 441.283 2597.22 429.55L2660.47 447.15C2653.5 461.817 2643.42 474.833 2630.22 486.2C2617.39 497.567 2602.17 506.55 2584.57 513.15C2566.97 519.383 2547.54 522.5 2526.27 522.5ZM2450.92 349.8H2601.62C2600.15 335.133 2595.94 322.483 2588.97 311.85C2582.37 300.85 2573.57 292.417 2562.57 286.55C2551.57 280.317 2539.29 277.2 2525.72 277.2C2512.52 277.2 2500.42 280.317 2489.42 286.55C2478.79 292.417 2469.99 300.85 2463.02 311.85C2456.42 322.483 2452.39 335.133 2450.92 349.8Z" fill="#333333"/>
</svg>
