<svg width="502" height="502" viewBox="0 0 502 502" fill="none" xmlns="http://www.w3.org/2000/svg">
<rect width="502" height="502" fill="#333333"/>
<path d="M260.793 278.091V317.864H142.966V278.091H260.793ZM169.937 469V264.295C169.937 250.457 172.63 238.981 178.016 229.866C183.484 220.752 190.942 213.916 200.388 209.359C209.834 204.801 220.564 202.523 232.579 202.523C240.699 202.523 248.115 203.144 254.827 204.387C261.621 205.63 266.676 206.749 269.99 207.743L260.544 247.516C258.473 246.853 255.904 246.231 252.838 245.651C249.855 245.071 246.789 244.781 243.641 244.781C235.852 244.781 230.424 246.604 227.359 250.25C224.293 253.813 222.76 258.826 222.76 265.289V469H169.937ZM461.579 332.53L413.106 335.513C412.277 331.37 410.496 327.641 407.762 324.327C405.027 320.929 401.423 318.237 396.948 316.248C392.557 314.176 387.295 313.141 381.164 313.141C372.96 313.141 366.042 314.881 360.407 318.361C354.773 321.758 351.955 326.315 351.955 332.033C351.955 336.59 353.778 340.443 357.424 343.592C361.07 346.74 367.326 349.268 376.192 351.173L410.745 358.134C429.305 361.945 443.143 368.077 452.257 376.528C461.372 384.98 465.929 396.083 465.929 409.838C465.929 422.35 462.242 433.329 454.867 442.775C447.576 452.221 437.55 459.595 424.789 464.898C412.112 470.119 397.487 472.729 380.915 472.729C355.643 472.729 335.508 467.467 320.51 456.944C305.595 446.338 296.854 431.92 294.285 413.691L346.362 410.957C347.937 418.663 351.748 424.546 357.797 428.606C363.846 432.583 371.593 434.572 381.039 434.572C390.32 434.572 397.777 432.79 403.411 429.227C409.129 425.581 412.029 420.9 412.112 415.183C412.029 410.377 409.999 406.441 406.021 403.375C402.044 400.226 395.913 397.823 387.627 396.166L354.566 389.579C335.922 385.85 322.043 379.387 312.928 370.19C303.897 360.992 299.381 349.268 299.381 335.016C299.381 322.752 302.695 312.188 309.324 303.322C316.036 294.456 325.44 287.62 337.538 282.814C349.718 278.008 363.97 275.605 380.294 275.605C404.406 275.605 423.381 280.701 437.218 290.893C451.139 301.085 459.259 314.964 461.579 332.53Z" fill="white"/>
</svg>
