<svg width="1380" height="1552" viewBox="0 0 1380 1552" fill="none" xmlns="http://www.w3.org/2000/svg">
<path fill-rule="evenodd" clip-rule="evenodd" d="M329.453 0H1022.79C1204.36 0 1352.24 147.88 1352.24 329.453V1133.5H1255.27V329.453C1255.27 201.219 1151.03 96.9733 1022.79 96.9733H329.453C201.213 96.9733 96.9733 201.208 96.9733 329.453V1222.05C96.9733 1350.29 201.208 1454.53 329.453 1454.53H936.5V1551.51H329.453C147.88 1551.51 0 1403.63 0 1221.81V329.453C0 147.88 147.88 0 329.453 0Z" fill="#333333"/>
<path d="M1068.55 425L283.579 425C258.365 425 238 445.364 238 470.579C238 495.793 258.364 516.157 283.579 516.157H1068.79C1094.01 516.157 1114.37 495.793 1114.37 470.579C1114.37 445.365 1093.76 425 1068.55 425H1068.55Z" fill="#333333"/>
<path d="M795.579 803H283.579C258.365 803 238 823.364 238 848.579C238 873.793 258.364 894.157 283.579 894.157H795.579C820.792 894.157 841.157 873.793 841.157 848.579C840.913 823.365 820.548 803 795.579 803Z" fill="#333333"/>
<rect x="1082.79" y="1043" width="85.4184" height="509" rx="20" fill="#333333"/>
<rect x="871" y="1340.21" width="85.4184" height="509" rx="20" transform="rotate(-90 871 1340.21)" fill="#333333"/>
</svg>
