<svg width="1380" height="1552" viewBox="0 0 1380 1552" fill="none" xmlns="http://www.w3.org/2000/svg">
<path fill-rule="evenodd" clip-rule="evenodd" d="M329.453 0H1022.79C1204.36 0 1352.24 147.88 1352.24 329.453V1133.5H1255.27V329.453C1255.27 201.219 1151.03 96.9733 1022.79 96.9733H329.453C201.213 96.9733 96.9733 201.208 96.9733 329.453V1222.05C96.9733 1350.29 201.208 1454.53 329.453 1454.53H936.5V1551.51H329.453C147.88 1551.51 0 1403.63 0 1221.81V329.453C0 147.88 147.88 0 329.453 0Z" fill="#333333"/>
<rect x="1082.79" y="1043" width="85.4184" height="509" rx="20" fill="#333333"/>
<rect x="871" y="1340.21" width="85.4184" height="509" rx="20" transform="rotate(-90 871 1340.21)" fill="#333333"/>
<path d="M418.24 451.072C405.073 450.369 392.152 454.801 382.182 463.437C372.213 472.067 365.98 484.229 364.792 497.358C363.838 510.587 368.177 523.651 376.859 533.676C385.542 543.702 397.854 549.864 411.083 550.812C552.003 561.785 683.097 627.243 776.537 733.291C848.286 819.252 890.854 925.803 898.089 1037.53C898.917 1050.19 904.526 1062.06 913.782 1070.73C923.032 1079.41 935.241 1084.25 947.922 1084.27C949.031 1084.27 950.136 1084.2 951.245 1084.13C964.479 1083.28 976.829 1077.21 985.578 1067.24C994.328 1057.27 998.755 1044.24 997.891 1031.01C989.167 897.872 938.349 770.943 852.771 668.583C742.468 541.364 586.171 463.13 418.224 451.077L418.24 451.072Z" fill="#333333"/>
<path d="M418.346 717.739C400.529 716.421 383.368 724.713 373.32 739.484C363.273 754.26 361.872 773.271 369.643 789.352C377.413 805.442 393.173 816.162 410.992 817.482C474.773 822.472 534.128 852.042 576.512 899.962C608.965 938.822 628.2 987.002 631.429 1037.53C632.257 1050.2 637.867 1062.08 647.127 1070.75C656.387 1079.44 668.605 1084.27 681.299 1084.28C682.372 1084.28 683.45 1084.21 684.554 1084.14C697.793 1083.31 710.152 1077.23 718.914 1067.26C727.669 1057.3 732.101 1044.26 731.231 1031.02C726.539 959.092 699.06 890.512 652.783 835.262C593.237 766.646 508.943 724.397 418.344 717.75L418.346 717.739Z" fill="#333333"/>
<path d="M481.333 1034.27C481.333 1071.09 451.484 1100.94 414.667 1100.94C377.849 1100.94 348 1071.09 348 1034.27C348 997.453 377.849 967.603 414.667 967.603C451.484 967.603 481.333 997.453 481.333 1034.27Z" fill="#333333"/>
</svg>
