<svg width="1380" height="1552" viewBox="0 0 1380 1552" fill="none" xmlns="http://www.w3.org/2000/svg">
<path fill-rule="evenodd" clip-rule="evenodd" d="M329.453 0H1022.79C1204.36 0 1352.24 147.88 1352.24 329.453V1133.5H1255.27V329.453C1255.27 201.219 1151.03 96.9733 1022.79 96.9733H329.453C201.213 96.9733 96.9733 201.208 96.9733 329.453V1222.05C96.9733 1350.29 201.208 1454.53 329.453 1454.53H936.5V1551.51H329.453C147.88 1551.51 0 1403.63 0 1221.81V329.453C0 147.88 147.88 0 329.453 0Z" fill="#333333"/>
<path d="M335 456.819L335 1241.79C335 1267.01 355.364 1287.37 380.579 1287.37C405.793 1287.37 426.157 1267.01 426.157 1241.79L426.157 456.579C426.157 431.365 405.793 411 380.579 411C355.365 411.005 335 431.609 335 456.823V456.819Z" fill="#333333"/>
<path d="M630 729.579V1241.58C630 1266.79 650.364 1287.16 675.579 1287.16C700.793 1287.16 721.157 1266.79 721.157 1241.58V729.579C721.157 704.365 700.793 684 675.579 684C650.365 684.245 630 704.609 630 729.579Z" fill="#333333"/>
<rect x="1082.79" y="1043" width="85.4184" height="509" rx="20" fill="#333333"/>
<rect x="871" y="1340.21" width="85.4184" height="509" rx="20" transform="rotate(-90 871 1340.21)" fill="#333333"/>
</svg>
