<svg width="1360" height="1083" viewBox="0 0 1360 1083" fill="none" xmlns="http://www.w3.org/2000/svg">
<path d="M1343.68 983.997H96.9573V16.3173C96.9573 7.19759 89.598 0 80.64 0C71.5203 0 64.3227 7.35932 64.3227 16.3173V983.997H16.3173C7.1976 983.997 0 991.357 0 1000.31C0 1009.27 7.35933 1016.63 16.3173 1016.63H64.156V1065.75C64.156 1074.87 71.5153 1082.07 80.4733 1082.07C89.5931 1082.07 96.7907 1074.71 96.7907 1065.75V1016.63H1343.51C1352.63 1016.63 1359.83 1009.27 1359.83 1000.31C1359.84 991.356 1352.64 983.997 1343.68 983.997H1343.68Z" fill="#333333"/>
<path d="M146.023 951.198H312.263C321.383 951.198 328.58 943.839 328.58 934.881L328.586 593.601C328.586 584.481 321.226 577.283 312.268 577.283H146.028C136.909 577.283 129.711 584.643 129.711 593.601V934.881C129.711 944 137.07 951.198 146.028 951.198H146.023Z" fill="#333333"/>
<path d="M385.064 951.198H551.304C560.424 951.198 567.621 943.838 567.621 934.88L567.627 453.44C567.627 444.321 560.267 437.123 551.309 437.123H385.069C375.95 437.123 368.752 444.482 368.752 453.44V934.88C368.752 944.005 376.111 951.203 385.069 951.203L385.064 951.198Z" fill="#333333"/>
<path d="M624.263 951.198H790.343C799.463 951.198 806.661 943.838 806.661 934.88V312.48C806.661 303.361 799.301 296.163 790.343 296.163H624.263C615.144 296.163 607.946 303.522 607.946 312.48V934.88C607.785 944 615.144 951.198 624.263 951.198Z" fill="#333333"/>
<path d="M863.304 951.198H1029.54C1038.66 951.198 1045.86 943.838 1045.86 934.88L1045.87 453.44C1045.87 444.321 1038.51 437.123 1029.55 437.123H863.31C854.19 437.123 846.992 444.482 846.992 453.44V934.88C846.992 944.005 854.352 951.203 863.31 951.203L863.304 951.198Z" fill="#333333"/>
<path d="M1102.5 951.198H1268.74C1277.86 951.198 1285.06 943.838 1285.06 934.88V30.8802C1285.06 21.7604 1277.7 14.5628 1268.74 14.5628L1102.5 14.5576C1093.38 14.5576 1086.19 21.917 1086.19 30.875V934.875C1086.02 944 1093.38 951.198 1102.5 951.198Z" fill="#333333"/>
</svg>
