<svg width="1360" height="1083" viewBox="0 0 1360 1083" fill="none" xmlns="http://www.w3.org/2000/svg">
<path d="M1343.73 984.88H97.014V17.2001C97.014 8.0804 89.6546 0.882812 80.6966 0.882812C71.5769 0.882812 64.3793 8.24213 64.3793 17.2001V984.88H16.374C7.25424 984.88 0.0566406 992.24 0.0566406 1001.2C0.0566406 1010.16 7.41597 1017.51 16.374 1017.51H64.2126V1066.63C64.2126 1075.75 71.572 1082.95 80.53 1082.95C89.6497 1082.95 96.8473 1075.59 96.8473 1066.63V1017.51H1343.57C1352.69 1017.51 1359.88 1010.16 1359.88 1001.2C1359.9 992.239 1352.7 984.88 1343.74 984.88H1343.73Z" fill="white"/>
<path d="M146.08 952.08H312.32C321.439 952.08 328.637 944.721 328.637 935.763L328.642 594.483C328.642 585.363 321.283 578.166 312.325 578.166H146.085C136.965 578.166 129.768 585.525 129.768 594.483V935.763C129.768 944.883 137.127 952.08 146.085 952.08H146.08Z" fill="white"/>
<path d="M385.121 952.08H551.361C560.48 952.08 567.678 944.721 567.678 935.763L567.683 454.323C567.683 445.203 560.324 438.005 551.366 438.005H385.126C376.006 438.005 368.809 445.365 368.809 454.323V935.763C368.809 944.888 376.168 952.085 385.126 952.085L385.121 952.08Z" fill="white"/>
<path d="M624.32 952.08H790.4C799.52 952.08 806.717 944.721 806.717 935.763V313.363C806.717 304.243 799.358 297.045 790.4 297.045H624.32C615.2 297.045 608.003 304.405 608.003 313.363V935.763C607.841 944.883 615.2 952.08 624.32 952.08Z" fill="white"/>
<path d="M863.361 952.08H1029.6C1038.72 952.08 1045.92 944.721 1045.92 935.763L1045.92 454.323C1045.92 445.203 1038.56 438.005 1029.61 438.005H863.366C854.246 438.005 847.049 445.365 847.049 454.323V935.763C847.049 944.888 854.408 952.085 863.366 952.085L863.361 952.08Z" fill="white"/>
<path d="M1102.56 952.08H1268.8C1277.92 952.08 1285.12 944.721 1285.12 935.763V31.763C1285.12 22.6432 1277.76 15.4456 1268.8 15.4456L1102.56 15.4404C1093.44 15.4404 1086.24 22.7998 1086.24 31.7578V935.758C1086.08 944.883 1093.44 952.08 1102.56 952.08Z" fill="white"/>
</svg>
