<svg width="1602" height="1756" viewBox="0 0 1602 1756" fill="none" xmlns="http://www.w3.org/2000/svg">
<path d="M1022.79 0H329.453C147.88 0 0 147.88 0 329.453V1221.81C0 1403.63 147.88 1551.51 329.453 1551.51H1022.79C1204.6 1551.51 1352.24 1403.63 1352.24 1222.05V329.453C1352.24 147.88 1204.36 0 1022.79 0ZM1255.27 1222.05C1255.27 1350.3 1151.02 1454.53 1022.79 1454.53H329.453C201.208 1454.53 96.9733 1350.29 96.9733 1222.05V329.453C96.9733 201.208 201.213 96.9733 329.453 96.9733H1022.79C1151.03 96.9733 1255.27 201.219 1255.27 329.453V1222.05Z" fill="#333333"/>
<path d="M1568 959L1515.5 1584L1289.5 1707.5H636L371.5 1623L301 1361.5V588.5L371.5 341.5L590.5 242.5H1353L1515.5 341.5L1568 528.5V959Z" fill="white" stroke="white"/>
<path d="M1271.79 204H578.453C396.88 204 249 351.88 249 533.453V1425.81C249 1607.63 396.88 1755.51 578.453 1755.51H1271.79C1453.6 1755.51 1601.24 1607.63 1601.24 1426.05V533.453C1601.24 351.88 1453.36 204 1271.79 204ZM1504.27 1426.05C1504.27 1554.3 1400.02 1658.53 1271.79 1658.53H578.453C450.208 1658.53 345.973 1554.29 345.973 1426.05V533.453C345.973 405.208 450.213 300.973 578.453 300.973H1271.79C1400.03 300.973 1504.27 405.219 1504.27 533.453V1426.05Z" fill="#333333"/>
</svg>
