<svg width="1428" height="1427" viewBox="0 0 1428 1427" fill="none" xmlns="http://www.w3.org/2000/svg">
<path d="M1112.47 14.0506C1093.73 -4.68352 1060.55 -4.68352 1041.81 14.0506L803.006 252.806L74.6845 980.896C71.1711 984.409 68.7312 988.117 66.4866 992.117C65.9987 992.898 65.5107 993.874 65.2179 994.654C63.2661 998.948 61.7046 1003.14 60.9238 1007.44C60.9238 1007.73 60.631 1007.73 60.631 1007.92L0.709321 1368.85C-2.02329 1384.85 3.24684 1401.05 14.6651 1412.27C24.1317 1421.73 36.9174 1427 49.8965 1427C52.6291 1427 55.3617 1426.71 58.0943 1426.22L419.09 1366.31C419.383 1366.31 419.383 1366.31 419.578 1366.02C424.068 1365.24 428.362 1363.77 432.558 1361.72C433.339 1361.24 434.315 1360.94 435.096 1360.46C439.097 1358.21 442.806 1355.67 446.319 1352.26L1413.36 385.413C1432.88 365.899 1432.88 334.188 1413.36 314.769L1112.47 14.0506ZM410.963 1246.5L180.653 1016.24L838.229 358.8L1068.54 589.062L410.963 1246.5ZM143.365 1120.34L306.737 1283.68L110.574 1316.37L143.365 1120.34ZM1139.01 518.312L908.704 288.049L1077.05 119.736L1307.17 349.999L1139.01 518.312Z" fill="#333333"/>
</svg>
