<svg width="1569" height="1424" viewBox="0 0 1569 1424" fill="none" xmlns="http://www.w3.org/2000/svg">
<path d="M1.06226 37.4368C1.06226 17.1248 17.4996 0.6875 37.8116 0.6875C58.1236 0.6875 74.5609 17.1248 74.5609 37.4368V730.624L437.614 422.757C452.802 409.882 475.489 411.569 488.677 426.382L666.49 626.515L1028.92 186.142C1041.6 170.705 1064.17 168.393 1079.79 180.642L1079.85 180.517L1276.28 334.824L1499.29 155.944C1515.11 143.256 1538.11 145.756 1550.86 161.569C1563.54 177.381 1561.04 200.381 1545.23 213.131L1300.91 409.065C1287.91 420.752 1268.04 421.69 1253.79 410.565L1062.67 260.445L697.48 704.125C695.917 706.375 694.042 708.5 691.855 710.375C676.667 723.875 653.48 722.5 640.043 707.375L457.616 502.001L74.496 826.815V1088.32L317.509 915.948C329.822 907.198 345.697 907.135 357.76 914.511L652.013 1078.76L1001.76 781.951C1014.2 771.451 1031.57 770.638 1044.7 778.763L1549.32 1048.14C1567.2 1057.64 1573.89 1079.82 1564.39 1097.7C1554.89 1115.51 1532.7 1122.26 1514.89 1112.76L1030.19 854.015L680.007 1151.2C668.694 1160.7 652.195 1162.89 638.507 1155.26L341.067 989.198L74.44 1178.32V1350.13H1532.04C1552.35 1350.13 1568.79 1366.57 1568.79 1386.88C1568.79 1407.19 1552.35 1423.63 1532.04 1423.63H37.64C17.328 1423.63 0.890625 1407.19 0.890625 1386.88V37.6802L1.06226 37.4368Z" fill="white"/>
</svg>
