<svg width="1568" height="1423" viewBox="0 0 1568 1423" fill="none" xmlns="http://www.w3.org/2000/svg">
<path d="M0.171633 36.7493C0.171633 16.4373 16.609 0 36.921 0C57.233 0 73.6703 16.4373 73.6703 36.7493V729.936L436.724 422.069C451.912 409.194 474.598 410.882 487.786 425.694L665.6 625.828L1028.03 185.454C1040.71 170.017 1063.28 167.705 1078.9 179.954L1078.96 179.829L1275.39 334.136L1498.4 155.256C1514.22 142.569 1537.22 145.069 1549.97 160.881C1562.65 176.693 1560.15 199.693 1544.34 212.444L1300.02 408.377C1287.02 420.065 1267.15 421.002 1252.9 409.877L1061.78 259.757L696.589 703.437C695.027 705.687 693.152 707.812 690.964 709.687C675.776 723.187 652.589 721.812 639.152 706.687L456.725 501.314L73.6053 826.127V1087.63L316.619 915.261C328.931 906.511 344.807 906.448 356.869 913.823L651.123 1078.08L1000.87 781.263C1013.31 770.763 1030.68 769.95 1043.81 778.076L1548.43 1047.45C1566.31 1056.95 1573 1079.14 1563.5 1097.01C1554 1114.82 1531.81 1121.57 1514 1112.07L1029.3 853.328L679.116 1150.51C667.803 1160.01 651.304 1162.2 637.616 1154.58L340.176 988.51L73.5493 1177.63V1349.44H1531.15C1551.46 1349.44 1567.9 1365.88 1567.9 1386.19C1567.9 1406.5 1551.46 1422.94 1531.15 1422.94H36.7493C16.4373 1422.94 0 1406.5 0 1386.19V36.9927L0.171633 36.7493Z" fill="#333333"/>
</svg>
