<svg width="1440" height="1440" viewBox="0 0 1440 1440" fill="none" xmlns="http://www.w3.org/2000/svg">
<path fill-rule="evenodd" clip-rule="evenodd" d="M1440.01 746.947C1429.69 545.373 1343.76 363.76 1210.01 230C1076.26 96.24 894.634 10.2533 693.061 0V747.013H1440.01V746.947ZM607.194 145.08V791.893C607.194 803.143 611.632 813.331 619.507 821.081L1076.49 1278.07C962.243 1378.82 812.307 1439.88 648.067 1439.88C469.053 1439.88 307.08 1367.32 189.813 1250.07C72.5627 1132.82 0 970.761 0 791.815C0 612.868 72.5 450.828 189.813 333.561C298.125 225.311 444.56 155.135 607.187 145.068L607.194 145.08ZM1294.82 832.76H746.688L1134.26 1220.33C1226.57 1115.65 1285.57 980.96 1294.82 832.76Z" fill="#333333"/>
</svg>
