<svg width="1440" height="1440" viewBox="0 0 1440 1440" fill="none" xmlns="http://www.w3.org/2000/svg">
<path fill-rule="evenodd" clip-rule="evenodd" d="M1440 747.013C1429.69 545.44 1343.75 363.826 1210 230.066C1076.25 96.3064 894.626 10.3197 693.053 0.0664062V747.08H1440V747.013ZM607.186 145.146V791.96C607.186 803.21 611.624 813.397 619.499 821.148L1076.49 1278.13C962.235 1378.88 812.299 1439.95 648.059 1439.95C469.046 1439.95 307.072 1367.39 189.806 1250.13C72.5549 1132.88 -0.0078125 970.828 -0.0078125 791.881C-0.0078125 612.934 72.4922 450.894 189.806 333.628C298.118 225.377 444.552 155.201 607.179 145.134L607.186 145.146ZM1294.81 832.826H746.68L1134.25 1220.4C1226.57 1115.71 1285.56 981.026 1294.81 832.826Z" fill="white"/>
</svg>
